<svg width="19" height="23" viewBox="0 0 19 23" fill="none" xmlns="http://www.w3.org/2000/svg">
<path d="M13.792 23L8.96 15.704C8.46933 14.936 7.94667 14.392 7.392 14.072C6.85867 13.7307 6.12267 13.56 5.184 13.56H0.576V10.904H7.488C9.024 10.904 10.208 10.5627 11.04 9.88C11.872 9.176 12.288 8.088 12.288 6.616C12.288 5.16533 11.872 4.09867 11.04 3.416C10.208 2.73333 9.024 2.392 7.488 2.392H4.832V0.695999H7.936C9.51467 0.695999 10.8693 0.909332 12 1.336C13.152 1.74133 14.0267 2.392 14.624 3.288C15.2427 4.184 15.552 5.35733 15.552 6.808C15.552 8.19467 15.232 9.37867 14.592 10.36C13.9733 11.3413 13.0987 12.0987 11.968 12.632C10.8373 13.144 9.51467 13.4 8 13.4L8.224 13.048C9.312 13.048 10.1973 13.2613 10.88 13.688C11.584 14.0933 12.2453 14.7653 12.864 15.704L17.728 23H13.792ZM0.576 7.32V5.112H18.624V7.32H0.576ZM0.576 2.392V0.216H18.624V2.392H0.576Z" fill="#2B4486"/>
</svg>
