<svg width="100" height="22" viewBox="0 0 100 22" fill="none" xmlns="http://www.w3.org/2000/svg">
<path fill-rule="evenodd" clip-rule="evenodd" d="M25.3276 4.89548C25.9414 5.60021 26.0807 6.61141 25.745 7.92874C25.5094 8.85532 25.0741 9.65121 24.4399 10.3164C23.8059 10.9816 23.0184 11.4586 22.0782 11.7452C22.8158 11.9147 23.2353 12.4822 23.3368 13.4477L23.8345 17.7725H20.7675L20.2571 13.1344C20.2134 12.7694 20.0712 12.5149 19.8283 12.3712C19.5859 12.2277 19.2549 12.1558 18.8338 12.1558H16.9565L15.527 17.7725H12.6646L16.2106 3.83887H22.1024C23.6384 3.83887 24.7139 4.19074 25.3276 4.89548ZM22.0845 9.38719C22.5431 9.09379 22.8521 8.63377 23.0116 8.00745C23.1711 7.38113 23.0957 6.92143 22.7867 6.62804C22.477 6.33432 21.907 6.18762 21.0769 6.18762H18.4376L17.511 9.82793H20.1504C20.9811 9.82793 21.6252 9.68058 22.0845 9.38719Z" fill="#1F2849"/>
<path fill-rule="evenodd" clip-rule="evenodd" d="M33.5983 9.25989L33.9566 7.85075V7.85107H36.7257L34.2008 17.7729H31.4318L31.8057 16.3053C31.3911 16.8136 30.8872 17.2122 30.2939 17.4988C29.7004 17.786 29.0751 17.9294 28.4185 17.9294C27.6009 17.9294 26.9319 17.7213 26.4128 17.3034C25.8931 16.8859 25.5555 16.2889 25.3997 15.5127C25.2439 14.7364 25.2957 13.8395 25.5548 12.8218C25.8136 11.8041 26.221 10.8974 26.7768 10.1015C27.3325 9.30596 27.9823 8.68976 28.7251 8.25228C29.4679 7.81513 30.2424 7.59656 31.048 7.59656C31.7045 7.59656 32.2553 7.74685 32.6996 8.04678C33.1434 8.34671 33.4431 8.75086 33.5983 9.25989ZM31.5965 14.9349C32.0942 14.4392 32.4625 13.7211 32.7018 12.7821C32.941 11.8428 32.9379 11.1217 32.694 10.6202C32.4504 10.118 31.9806 9.86646 31.2871 9.86646C30.593 9.86646 29.9879 10.1275 29.4713 10.6489C28.9541 11.171 28.5783 11.8951 28.3428 12.8213C28.1066 13.7482 28.1153 14.4556 28.3695 14.9447C28.622 15.4341 29.1018 15.6785 29.8089 15.6785C30.5024 15.6785 31.0982 15.4308 31.5965 14.9349Z" fill="#1F2849"/>
<path d="M46.6827 7.85077H38.6349L38.0724 10.062H42.7559L36.5637 15.6979L36.0353 17.7726H44.3431L44.9062 15.5614H39.8885L46.1744 9.8467L46.6827 7.85077Z" fill="#1F2849"/>
<path fill-rule="evenodd" clip-rule="evenodd" d="M52.9453 7.59631C53.9367 7.59631 54.7506 7.80509 55.3879 8.22231C56.0246 8.64018 56.4448 9.24037 56.6489 10.0229C56.8522 10.8057 56.8215 11.7189 56.5555 12.7627C56.2899 13.8066 55.8558 14.7195 55.2545 15.5023C54.6525 16.2854 53.9261 16.8853 53.0775 17.3028C52.2276 17.7207 51.3072 17.9288 50.3159 17.9288C49.3121 17.9288 48.4889 17.7207 47.8453 17.3028C47.2011 16.8853 46.7782 16.2851 46.575 15.5023C46.3711 14.7195 46.4018 13.8066 46.6677 12.7627C46.9334 11.7189 47.3675 10.8057 47.9694 10.0229C48.5711 9.24004 49.2996 8.64018 50.1557 8.22231C51.0118 7.80509 51.9415 7.59631 52.9453 7.59631ZM52.6613 14.9549C53.1498 14.4723 53.5187 13.7411 53.7679 12.7629C54.0139 11.7974 54.0158 11.0702 53.775 10.5811C53.5339 10.0916 53.066 9.84692 52.3725 9.84692C51.6659 9.84692 51.0652 10.0916 50.5687 10.5811C50.0729 11.0702 49.7021 11.7974 49.456 12.7629C48.9614 14.7072 49.4386 15.6785 50.8886 15.6785C51.5821 15.6785 52.1729 15.4374 52.6613 14.9549Z" fill="#1F2849"/>
<path fill-rule="evenodd" clip-rule="evenodd" d="M85.2474 9.25989L85.6058 7.85075V7.85107H88.3748L85.85 17.7729H83.0809L83.4548 16.3053C83.0403 16.8136 82.5364 17.2122 81.9431 17.4988C81.3495 17.786 80.7243 17.9294 80.0677 17.9294C79.2501 17.9294 78.5811 17.7213 78.0619 17.3034C77.5416 16.8859 77.2046 16.2889 77.0488 15.5127C76.8937 14.7364 76.9449 13.8395 77.204 12.8218C77.4628 11.8041 77.8702 10.8974 78.4259 10.1015C78.9816 9.30596 79.6314 8.68976 80.3742 8.25228C81.1171 7.81513 81.8916 7.59656 82.6971 7.59656C83.3537 7.59656 83.9044 7.74685 84.3488 8.04678C84.7925 8.34671 85.0923 8.75086 85.2474 9.25989ZM83.4648 15.2591C83.9943 14.7318 84.3862 13.9677 84.6407 12.9686C84.8953 11.9692 84.892 11.202 84.6328 10.6684C84.3737 10.1341 83.8738 9.86646 83.136 9.86646C82.3971 9.86646 81.7533 10.1442 81.2036 10.699C80.6533 11.2545 80.2535 12.0248 80.0029 13.0103C79.7517 13.9965 79.7609 14.7491 80.0313 15.2695C80.3 15.7903 80.8111 16.0503 81.5622 16.0503C82.3 16.0503 82.9352 15.7868 83.4648 15.2591Z" fill="#1F2849"/>
<path d="M65.2609 10.5124L65.9668 7.81169C65.7269 7.68133 65.4092 7.61566 65.0129 7.61566C64.3806 7.61566 63.7718 7.78196 63.1853 8.11489C62.6817 8.40044 62.2526 8.80133 61.8905 9.3035L62.2575 7.84927L61.4557 7.85057H59.4891L56.9447 17.7724H59.7522L61.0719 12.5867C61.2643 11.83 61.609 11.24 62.108 10.8159C62.6057 10.3918 63.2269 10.1798 63.9704 10.1798C64.429 10.1798 64.8587 10.2908 65.2609 10.5124Z" fill="#1F2849"/>
<path fill-rule="evenodd" clip-rule="evenodd" d="M73.0482 7.59631C73.8528 7.59631 74.5162 7.81456 75.0372 8.25171C75.5576 8.68919 75.8939 9.30538 76.0441 10.1009C76.1943 10.8972 76.1406 11.8035 75.8815 12.8212C75.6227 13.8393 75.2209 14.7364 74.6764 15.5121C74.1324 16.2884 73.4907 16.8856 72.7528 17.3028C72.014 17.7207 71.2364 17.9288 70.4188 17.9288C69.7616 17.9288 69.2096 17.7851 68.7622 17.4982C68.3144 17.2117 68.019 16.8134 67.8769 16.305L66.4275 21.9994H63.6206L66.4992 10.6881C66.5032 10.6721 66.507 10.6566 66.5107 10.6412C66.5144 10.6257 66.5181 10.6103 66.5222 10.5943L67.22 7.8505H69.4178V7.84919H69.9605L69.4889 9.42954L69.4799 9.49456C69.8767 8.90711 70.394 8.4448 71.0326 8.10502C71.6693 7.76588 72.3417 7.59631 73.0482 7.59631ZM71.9775 14.9447C72.4733 14.4556 72.8392 13.7483 73.0753 12.8214C73.3108 11.8955 73.3058 11.1711 73.061 10.649C72.8156 10.1276 72.3526 9.86621 71.6715 9.86621C70.9774 9.86621 70.3773 10.1181 69.8715 10.62C69.3657 11.1218 68.9937 11.8425 68.7545 12.7822C68.5152 13.7218 68.5214 14.4393 68.7737 14.9349C69.0254 15.4309 69.4982 15.6786 70.1924 15.6786C70.8859 15.6786 71.4804 15.4342 71.9775 14.9447Z" fill="#1F2849"/>
<path d="M99.9979 7.85338L99.9997 7.85077H98.2996C98.2453 7.85077 98.1972 7.8524 98.1476 7.85338H97.2651L96.8139 8.51532C96.7776 8.56531 96.7416 8.61529 96.7025 8.67378L96.6535 8.75056L93.0675 14.0091L92.324 7.8511H89.3868L90.8743 17.2087L87.5895 22H87.6832H89.3604H90.5159L91.3121 20.8127C91.3357 20.7774 91.3556 20.7484 91.3807 20.7111L92.3097 19.3245L92.3364 19.2847L96.4931 13.0802L99.9954 7.85828L100 7.85436H99.9979V7.85338Z" fill="#1F2849"/>
<path d="M6.20568 5.77889L5.33984 8.96364L10.2941 5.76099L7.05426 17.8439L10.3443 17.8471L15.1304 0L6.20568 5.77889Z" fill="#429CFF"/>
<path d="M1.27569 12.768L0 17.847H6.31618C6.31618 17.847 8.89962 7.5174 8.90051 7.51453C8.89782 7.5158 1.27569 12.768 1.27569 12.768Z" fill="#1F2849"/>
</svg>
