<svg width="74" height="16" viewBox="0 0 74 16" fill="none" xmlns="http://www.w3.org/2000/svg">
<path fill-rule="evenodd" clip-rule="evenodd" d="M19.489 3.56044C19.9371 4.07297 20.0388 4.80839 19.7937 5.76645C19.6218 6.44032 19.304 7.01915 18.841 7.50293C18.3782 7.98672 17.8033 8.33363 17.117 8.54202C17.6554 8.66534 17.9616 9.07808 18.0357 9.78023L18.399 12.9255H16.1602L15.7876 9.55236C15.7556 9.28694 15.6519 9.10184 15.4745 8.99729C15.2976 8.89298 15.0559 8.8407 14.7485 8.8407H13.3781L12.3346 12.9255H10.245L12.8336 2.79199H17.1346C18.2559 2.79199 19.041 3.0479 19.489 3.56044ZM17.1217 6.82696C17.4565 6.61358 17.6821 6.27902 17.7986 5.82351C17.915 5.36801 17.8599 5.03368 17.6343 4.8203C17.4083 4.60669 16.9922 4.5 16.3862 4.5H14.4595L13.7831 7.1475H15.7099C16.3162 7.1475 16.7865 7.04034 17.1217 6.82696Z" fill="white"/>
<path fill-rule="evenodd" clip-rule="evenodd" d="M25.5267 6.73411L25.7884 5.70928V5.70952H27.8098L25.9666 12.9254H23.9452L24.2182 11.858C23.9155 12.2278 23.5477 12.5176 23.1146 12.726C22.6813 12.9349 22.2248 13.0392 21.7455 13.0392C21.1487 13.0392 20.6603 12.8878 20.2814 12.5839C19.9019 12.2803 19.6555 11.8461 19.5418 11.2816C19.4281 10.717 19.4659 10.0648 19.655 9.32458C19.844 8.58441 20.1414 7.92503 20.5471 7.3462C20.9527 6.76761 21.4271 6.31947 21.9693 6.00131C22.5116 5.68338 23.077 5.52441 23.665 5.52441C24.1443 5.52441 24.5464 5.63372 24.8708 5.85185C25.1947 6.06998 25.4135 6.36391 25.5267 6.73411ZM24.0658 10.8614C24.4291 10.5009 24.698 9.97867 24.8726 9.29576C25.0473 8.61262 25.045 8.08821 24.8669 7.72347C24.6891 7.35826 24.3462 7.17529 23.8399 7.17529C23.3332 7.17529 22.8915 7.36515 22.5144 7.74438C22.1368 8.12409 21.8625 8.65064 21.6905 9.32428C21.5182 9.99839 21.5245 10.5128 21.71 10.8685C21.8944 11.2245 22.2446 11.4022 22.7608 11.4022C23.2671 11.4022 23.702 11.2221 24.0658 10.8614Z" fill="white"/>
<path d="M35.0783 5.70947H29.2034L28.7927 7.31765H32.2117L27.6914 11.4165L27.3057 12.9253H33.3704L33.7815 11.3172H30.1185L34.7072 7.16106L35.0783 5.70947Z" fill="white"/>
<path fill-rule="evenodd" clip-rule="evenodd" d="M39.6501 5.52441C40.3738 5.52441 40.968 5.67625 41.4332 5.97968C41.8981 6.28359 42.2048 6.72009 42.3538 7.28918C42.5022 7.8585 42.4797 8.52263 42.2856 9.28181C42.0917 10.041 41.7748 10.7049 41.3358 11.2742C40.8964 11.8438 40.3661 12.28 39.7466 12.5837C39.1262 12.8876 38.4544 13.039 37.7306 13.039C36.9979 13.039 36.3969 12.8876 35.9271 12.5837C35.4569 12.28 35.1482 11.8435 34.9998 11.2742C34.851 10.7049 34.8734 10.041 35.0675 9.28181C35.2614 8.52263 35.5783 7.8585 36.0177 7.28918C36.457 6.71985 36.9888 6.28359 37.6138 5.97968C38.2387 5.67625 38.9174 5.52441 39.6501 5.52441ZM39.443 10.876C39.7996 10.525 40.0689 9.99326 40.2508 9.28184C40.4304 8.57969 40.4318 8.05076 40.256 7.69505C40.08 7.33911 39.7384 7.16113 39.2321 7.16113C38.7164 7.16113 38.2778 7.33911 37.9154 7.69505C37.5534 8.05076 37.2828 8.57969 37.1031 9.28184C36.7421 10.6959 37.0904 11.4023 38.1489 11.4023C38.6552 11.4023 39.0865 11.227 39.443 10.876Z" fill="white"/>
<path fill-rule="evenodd" clip-rule="evenodd" d="M63.2306 6.73411L63.4923 5.70928V5.70952H65.5137L63.6705 12.9254H61.6491L61.9221 11.858C61.6195 12.2278 61.2516 12.5176 60.8185 12.726C60.3852 12.9349 59.9288 13.0392 59.4494 13.0392C58.8526 13.0392 58.3642 12.8878 57.9853 12.5839C57.6054 12.2803 57.3594 11.8461 57.2457 11.2816C57.1324 10.717 57.1698 10.0648 57.3589 9.32458C57.5479 8.58441 57.8453 7.92503 58.251 7.3462C58.6566 6.76761 59.131 6.31947 59.6732 6.00131C60.2155 5.68338 60.7809 5.52441 61.3689 5.52441C61.8482 5.52441 62.2503 5.63372 62.5747 5.85185C62.8986 6.06998 63.1174 6.36391 63.2306 6.73411ZM61.9295 11.0972C62.3161 10.7137 62.6022 10.158 62.788 9.43141C62.9738 8.70457 62.9714 8.14661 62.7822 7.75854C62.593 7.36996 62.2282 7.17529 61.6895 7.17529C61.1501 7.17529 60.6802 7.37729 60.2789 7.78079C59.8772 8.18478 59.5853 8.74502 59.4024 9.46175C59.219 10.179 59.2257 10.7263 59.4231 11.1048C59.6193 11.4835 59.9924 11.6726 60.5406 11.6726C61.0793 11.6726 61.543 11.481 61.9295 11.0972Z" fill="white"/>
<path d="M48.6404 7.64526L49.1557 5.68114C48.9806 5.58633 48.7487 5.53857 48.4594 5.53857C47.9978 5.53857 47.5533 5.65952 47.1252 5.90165C46.7576 6.10932 46.4443 6.40088 46.18 6.76609L46.448 5.70847L45.8626 5.70942H44.427L42.5696 12.9253H44.6191L45.5824 9.15388C45.7229 8.60356 45.9745 8.17443 46.3388 7.86601C46.7021 7.55758 47.1556 7.40337 47.6983 7.40337C48.0331 7.40337 48.3468 7.48416 48.6404 7.64526Z" fill="white"/>
<path fill-rule="evenodd" clip-rule="evenodd" d="M54.3253 5.52441C54.9126 5.52441 55.3969 5.68314 55.7772 6.00107C56.1571 6.31923 56.4027 6.76737 56.5123 7.34597C56.6219 7.92503 56.5827 8.58417 56.3936 9.32434C56.2047 10.0648 55.9113 10.7172 55.5138 11.2813C55.1167 11.8459 54.6483 12.2803 54.1097 12.5837C53.5703 12.8876 53.0027 13.039 52.4058 13.039C51.9261 13.039 51.5231 12.9344 51.1965 12.7258C50.8696 12.5174 50.654 12.2278 50.5502 11.858L49.4922 15.9994H47.4431L49.5445 7.77296C49.5474 7.76131 49.5502 7.75008 49.5529 7.73885C49.5556 7.72763 49.5583 7.7164 49.5612 7.70476L50.0707 5.70928H51.6751V5.70833H52.0713L51.7269 6.85767L51.7204 6.90495C52.0101 6.47772 52.3877 6.1415 52.8539 5.89438C53.3187 5.64774 53.8095 5.52441 54.3253 5.52441ZM53.5436 10.8688C53.9056 10.5131 54.1727 9.99863 54.345 9.32452C54.517 8.65112 54.5133 8.12433 54.3346 7.74462C54.1555 7.36538 53.8175 7.17529 53.3203 7.17529C52.8136 7.17529 52.3755 7.35849 52.0063 7.72347C51.6371 8.08845 51.3655 8.61262 51.1908 9.296C51.0162 9.97938 51.0207 10.5012 51.2049 10.8616C51.3886 11.2223 51.7338 11.4025 52.2405 11.4025C52.7468 11.4025 53.1808 11.2247 53.5436 10.8688Z" fill="white"/>
<path d="M73.9985 5.71137L73.9999 5.70947H72.7588C72.7191 5.70947 72.684 5.71066 72.6478 5.71137H72.0036L71.6742 6.19278C71.6477 6.22914 71.6215 6.26549 71.5929 6.30802L71.5571 6.36386L68.9393 10.1883L68.3966 5.70971H66.2524L67.3383 12.5152L64.9404 15.9998H65.0088H66.2331H67.0767L67.6579 15.1363C67.6751 15.1107 67.6896 15.0895 67.708 15.0625L68.3862 14.054L68.4056 14.025L71.44 9.51273L73.9967 5.71494L74.0001 5.71209H73.9985V5.71137Z" fill="white"/>
<path d="M4.53013 4.20283L3.89807 6.51901L7.51469 4.18981L5.14959 12.9774L7.55134 12.9797L11.0452 0L4.53013 4.20283Z" fill="#429CFF"/>
<path d="M0.931257 9.28596L0 12.9798H4.61082C4.61082 12.9798 6.49672 5.46733 6.49738 5.46524C6.49541 5.46617 0.931257 9.28596 0.931257 9.28596Z" fill="white"/>
</svg>
