<svg width="10" height="12" viewBox="0 0 10 12" fill="none" xmlns="http://www.w3.org/2000/svg">
<path fill-rule="evenodd" clip-rule="evenodd" d="M3 0.5C2.35404 0.5 1.84435 0.589692 1.46165 0.7108C1.09364 0.827257 0.809027 0.983866 0.646447 1.14645C0.552678 1.24021 0.5 1.36739 0.5 1.5V11C0.5 11.2761 0.723858 11.5 1 11.5C1.27614 11.5 1.5 11.2761 1.5 11V7.76687C1.5669 7.73449 1.65416 7.69875 1.76335 7.6642C2.03899 7.57698 2.44596 7.5 3 7.5C3.64035 7.5 4.18026 7.71062 4.8143 7.96424L4.84216 7.97538C5.44654 8.21721 6.14152 8.4953 6.97874 8.49994C7.33253 8.52617 7.78761 8.42323 8.15649 8.31865C8.55707 8.20509 8.94785 8.06172 9.18958 7.96267C9.37735 7.88572 9.5 7.70292 9.5 7.5V1.5C9.5 1.3078 9.38983 1.13261 9.21659 1.04935C9.04336 0.966088 8.83774 0.989498 8.68765 1.10957C8.53266 1.23356 8.25354 1.33939 7.90194 1.40971C7.56429 1.47724 7.22268 1.5 7 1.5C6.35965 1.5 5.81974 1.28938 5.1857 1.03576L5.15784 1.02462C4.54835 0.780742 3.84672 0.5 3 0.5Z" fill="#528FF0"/>
</svg>
