<svg width="16" height="15" viewBox="0 0 16 15" fill="none" xmlns="http://www.w3.org/2000/svg">
<path d="M7.99998 4.99999C8.36817 4.99999 8.66665 5.29847 8.66665 5.66666V8.33332C8.66665 8.70151 8.36817 8.99999 7.99998 8.99999C7.63179 8.99999 7.33331 8.70151 7.33331 8.33332V5.66666C7.33331 5.29847 7.63179 4.99999 7.99998 4.99999Z" fill="#8D6623"/>
<path d="M7.99998 11.6667C8.36817 11.6667 8.66665 11.3682 8.66665 11C8.66665 10.6318 8.36817 10.3333 7.99998 10.3333C7.63179 10.3333 7.33331 10.6318 7.33331 11C7.33331 11.3682 7.63179 11.6667 7.99998 11.6667Z" fill="#8D6623"/>
<path fill-rule="evenodd" clip-rule="evenodd" d="M6.28999 1.89423C6.65256 1.29651 7.30091 0.931488 7.99999 0.931488C8.69908 0.931488 9.34743 1.29651 9.70999 1.89423L9.71191 1.8974L15.3586 11.3241L15.364 11.3333C15.7193 11.9487 15.7215 12.7064 15.3696 13.3238C15.0177 13.9412 14.3646 14.3255 13.654 14.3333L13.6467 14.3334L2.346 14.3333C1.63541 14.3255 0.982333 13.9412 0.630426 13.3238C0.27852 12.7064 0.280642 11.9487 0.636 11.3333L0.641415 11.3241L6.28999 1.89423ZM7.4308 2.58441L1.78845 12.0039C1.6722 12.2083 1.67223 12.459 1.7888 12.6635C1.90559 12.8684 2.12191 12.9963 2.35759 13H13.6424C13.8781 12.9963 14.0944 12.8684 14.2112 12.6635C14.3278 12.459 14.3278 12.2083 14.2116 12.0039L8.56999 2.58574L8.56919 2.58441C8.44818 2.38596 8.2325 2.26482 7.99999 2.26482C7.76748 2.26482 7.55181 2.38596 7.4308 2.58441Z" fill="#8D6623"/>
</svg>
